<?xml version="1.0" encoding="UTF-8"?>
<svg xmlns="http://www.w3.org/2000/svg" xmlns:xlink="http://www.w3.org/1999/xlink" width="13pt" height="13pt" viewBox="0 0 13 13" version="1.1">
<g id="surface1">
<path style=" stroke:none;fill-rule:nonzero;fill:rgb(16.078431%,16.078431%,16.078431%);fill-opacity:1;" d="M 10.789062 1.429688 C 9.605469 0.242188 7.6875 0.242188 6.5 1.429688 L 1.964844 5.964844 C 1.820312 6.09375 1.820312 6.320312 1.964844 6.46875 C 2.113281 6.597656 2.324219 6.597656 2.46875 6.46875 L 7.003906 1.933594 C 7.882812 1.054688 9.410156 1.054688 10.285156 1.933594 C 11.195312 2.84375 11.195312 4.324219 10.285156 5.234375 L 3.964844 11.617188 C 3.429688 12.15625 2.484375 12.15625 1.933594 11.617188 C 1.382812 11.066406 1.382812 10.15625 1.933594 9.605469 L 8.011719 3.460938 C 8.207031 3.25 8.5625 3.25 8.773438 3.460938 C 8.984375 3.65625 8.984375 3.996094 8.773438 4.207031 L 2.957031 10.109375 C 2.828125 10.222656 2.828125 10.480469 2.957031 10.609375 C 3.085938 10.742188 3.316406 10.742188 3.460938 10.609375 L 9.277344 4.710938 C 9.765625 4.226562 9.765625 3.445312 9.277344 2.941406 C 8.808594 2.46875 7.980469 2.46875 7.507812 2.941406 L 1.429688 9.082031 C 0.601562 9.914062 0.601562 11.292969 1.429688 12.121094 C 1.835938 12.527344 2.371094 12.757812 2.957031 12.757812 C 3.527344 12.757812 4.0625 12.527344 4.46875 12.121094 L 10.789062 5.734375 C 11.976562 4.550781 11.976562 2.617188 10.789062 1.429688 Z M 10.789062 1.429688 "/>
</g>
</svg>
