<svg xmlns="http://www.w3.org/2000/svg" xmlns:xlink="http://www.w3.org/1999/xlink" width="61pt" height="55pt" viewBox="0 0 61 55" version="1.1">
<path style=" stroke:none;fill-rule:evenodd;fill:rgb(16.078431%,16.078431%,16.078431%);fill-opacity:1;" d="M 8.9375 17.523438 C 9.367188 17.523438 9.695312 17.875 9.695312 18.292969 L 9.695312 24.835938 L 24.898438 24.835938 L 24.898438 9.429688 L 9.695312 9.429688 L 9.695312 15.238281 C 9.695312 15.671875 9.367188 16.007812 8.9375 16.007812 C 8.527344 16.007812 8.175781 15.671875 8.175781 15.238281 L 8.175781 8.660156 C 8.175781 8.234375 8.527344 7.894531 8.9375 7.894531 L 25.660156 7.894531 C 26.070312 7.894531 26.421875 8.234375 26.421875 8.660156 L 26.421875 25.589844 C 26.421875 26.019531 26.070312 26.355469 25.660156 26.355469 L 8.9375 26.355469 C 8.527344 26.355469 8.175781 26.019531 8.175781 25.589844 L 8.175781 18.292969 C 8.175781 17.875 8.527344 17.523438 8.9375 17.523438 Z M 8.175781 30.664062 C 8.175781 30.25 8.527344 29.910156 8.9375 29.910156 L 25.660156 29.910156 C 26.070312 29.910156 26.421875 30.25 26.421875 30.664062 L 26.421875 40.140625 C 26.769531 39.9375 27.164062 39.800781 27.589844 39.738281 C 27.679688 37.667969 28.199219 35.644531 29.109375 33.792969 L 29.109375 5.289062 L 5.488281 5.289062 L 5.488281 50.976562 L 27.121094 50.976562 C 26.40625 50.257812 25.8125 49.398438 25.339844 48.371094 L 8.9375 48.371094 C 8.527344 48.371094 8.175781 48.019531 8.175781 47.605469 Z M 9.695312 46.839844 L 24.777344 46.839844 C 24.71875 46.636719 24.65625 46.441406 24.597656 46.226562 C 24.597656 46.226562 24.597656 46.226562 24.597656 46.210938 C 24.597656 46.195312 24.597656 46.179688 24.582031 46.164062 C 24.582031 46.148438 24.582031 46.148438 24.582031 46.132812 C 24.582031 46.117188 24.582031 46.101562 24.582031 46.085938 C 24.582031 46.070312 24.582031 46.054688 24.582031 46.039062 L 24.582031 43.25 C 24.582031 42.714844 24.6875 42.207031 24.898438 41.761719 L 24.898438 31.429688 L 9.695312 31.429688 Z M 33.082031 0.507812 C 33.507812 0.507812 33.839844 0.859375 33.839844 1.269531 L 33.839844 28.179688 C 34.464844 27.734375 35.117188 27.335938 35.796875 26.984375 L 35.796875 25.804688 C 35.796875 25.496094 35.984375 25.222656 36.269531 25.113281 C 37.519531 24.59375 38.839844 24.222656 40.179688 24.027344 C 40.40625 23.992188 40.621094 24.054688 40.785156 24.207031 C 40.9375 24.347656 41.042969 24.558594 41.042969 24.773438 L 41.042969 25.453125 C 42.03125 25.34375 43.039062 25.34375 44.039062 25.453125 L 44.039062 24.773438 C 44.039062 24.558594 44.132812 24.347656 44.296875 24.207031 C 44.453125 24.054688 44.675781 23.992188 44.890625 24.027344 C 46.226562 24.222656 47.550781 24.59375 48.8125 25.113281 C 49.085938 25.222656 49.269531 25.496094 49.269531 25.804688 L 49.269531 26.984375 C 51.640625 28.179688 53.632812 29.988281 55.089844 32.242188 C 56.535156 34.480469 57.355469 37.070312 57.492188 39.738281 C 59.183594 39.984375 60.5 41.472656 60.5 43.25 L 60.5 46.039062 C 60.5 46.054688 60.5 46.070312 60.488281 46.085938 C 60.488281 46.101562 60.488281 46.117188 60.488281 46.132812 C 60.488281 46.148438 60.488281 46.148438 60.488281 46.164062 C 60.488281 46.179688 60.472656 46.195312 60.472656 46.210938 C 60.472656 46.226562 60.472656 46.226562 60.472656 46.226562 C 59.542969 49.71875 57.84375 51.757812 54.925781 52.878906 C 52.113281 53.953125 48.097656 54.164062 42.535156 54.164062 C 36.988281 54.164062 32.972656 53.953125 30.144531 52.878906 C 29.839844 52.757812 29.566406 52.632812 29.296875 52.511719 L 1.519531 52.511719 C 1.09375 52.511719 0.761719 52.15625 0.761719 51.742188 L 0.761719 33.714844 C 0.761719 33.300781 1.09375 32.964844 1.519531 32.964844 C 1.929688 32.964844 2.28125 33.300781 2.28125 33.714844 L 2.28125 50.976562 L 3.980469 50.976562 L 3.980469 4.523438 C 3.980469 4.09375 4.316406 3.757812 4.742188 3.757812 L 29.855469 3.757812 C 30.28125 3.757812 30.613281 4.09375 30.613281 4.523438 L 30.613281 31.335938 C 31.136719 30.648438 31.710938 30.003906 32.320312 29.421875 L 32.320312 2.039062 L 2.28125 2.039062 L 2.28125 30.664062 C 2.28125 31.09375 1.929688 31.429688 1.519531 31.429688 C 1.09375 31.429688 0.761719 31.09375 0.761719 30.664062 L 0.761719 1.269531 C 0.761719 0.859375 1.09375 0.507812 1.519531 0.507812 Z M 49.269531 45.273438 L 56.003906 45.273438 L 56.003906 40.460938 C 56.003906 35.601562 53.402344 31.105469 49.269531 28.703125 Z M 29.066406 45.273438 L 47.78125 45.273438 L 47.78125 26.324219 C 47.050781 26.050781 46.289062 25.835938 45.53125 25.664062 L 45.53125 33.054688 C 45.53125 34.726562 44.191406 36.074219 42.535156 36.074219 C 40.890625 36.074219 39.539062 34.726562 39.539062 33.054688 L 39.539062 25.664062 C 38.78125 25.835938 38.035156 26.050781 37.308594 26.324219 L 37.308594 41.195312 C 37.308594 41.609375 36.957031 41.949219 36.546875 41.949219 C 36.132812 41.949219 35.796875 41.609375 35.796875 41.195312 L 35.796875 28.703125 C 31.679688 31.105469 29.066406 35.601562 29.066406 40.460938 Z M 41.042969 33.054688 C 41.042969 33.898438 41.714844 34.570312 42.535156 34.570312 C 43.355469 34.570312 44.039062 33.898438 44.039062 33.054688 L 44.039062 26.96875 C 43.039062 26.84375 42.03125 26.84375 41.042969 26.96875 Z M 26.070312 43.25 L 26.070312 45.273438 L 27.574219 45.273438 L 27.574219 41.289062 C 26.707031 41.515625 26.070312 42.3125 26.070312 43.25 Z M 58.742188 46.792969 L 26.328125 46.792969 C 27.164062 49.230469 28.472656 50.625 30.679688 51.46875 C 33.277344 52.464844 37.152344 52.664062 42.535156 52.664062 C 47.929688 52.664062 51.792969 52.464844 54.390625 51.46875 C 56.59375 50.625 57.902344 49.230469 58.742188 46.792969 Z M 58.996094 43.25 C 58.996094 42.3125 58.359375 41.515625 57.507812 41.289062 L 57.507812 45.273438 L 58.996094 45.273438 Z M 58.996094 43.25 "/>
</svg>
