<?xml version="1.0" encoding="UTF-8"?>
<svg xmlns="http://www.w3.org/2000/svg" xmlns:xlink="http://www.w3.org/1999/xlink" width="58pt" height="55pt" viewBox="0 0 58 55" version="1.1">
<defs>
<clipPath id="clip1">
  <path d="M 0 11.746094 L 43.101562 11.746094 L 43.101562 55 L 0 55 Z M 0 11.746094 "/>
</clipPath>
</defs>
<g id="surface1">
<path style=" stroke:none;fill-rule:nonzero;fill:rgb(0%,0%,0%);fill-opacity:1;" d="M 48.960938 5.597656 L 45.011719 5.597656 L 45.011719 3.867188 C 45.011719 3.308594 44.390625 3.054688 43.820312 3.054688 L 40.753906 3.054688 C 40.027344 1.019531 38.210938 0.00390625 36.132812 0.00390625 C 34.078125 -0.0742188 32.207031 1.160156 31.507812 3.054688 L 28.496094 3.054688 C 27.925781 3.054688 27.355469 3.308594 27.355469 3.867188 L 27.355469 5.597656 L 23.40625 5.597656 C 21.066406 5.621094 19.152344 7.429688 19.042969 9.714844 L 19.042969 38.855469 C 19.042969 41.089844 21.121094 42.71875 23.40625 42.71875 L 48.960938 42.71875 C 51.246094 42.71875 53.324219 41.089844 53.324219 38.855469 L 53.324219 9.714844 C 53.214844 7.429688 51.300781 5.621094 48.960938 5.597656 Z M 29.429688 5.089844 L 32.289062 5.089844 C 32.785156 5.027344 33.1875 4.65625 33.273438 4.171875 C 33.582031 2.863281 34.757812 1.921875 36.132812 1.886719 C 37.492188 1.925781 38.648438 2.871094 38.9375 4.171875 C 39.03125 4.675781 39.457031 5.050781 39.976562 5.089844 L 42.9375 5.089844 L 42.9375 9.15625 L 29.429688 9.15625 Z M 51.246094 38.855469 C 51.246094 39.972656 50.101562 40.683594 48.960938 40.683594 L 23.40625 40.683594 C 22.261719 40.683594 21.121094 39.972656 21.121094 38.855469 L 21.121094 9.714844 C 21.226562 8.550781 22.210938 7.652344 23.40625 7.632812 L 27.355469 7.632812 L 27.355469 10.222656 C 27.410156 10.792969 27.914062 11.21875 28.496094 11.191406 L 43.820312 11.191406 C 44.414062 11.222656 44.933594 10.800781 45.011719 10.222656 L 45.011719 7.632812 L 48.960938 7.632812 C 50.15625 7.652344 51.140625 8.550781 51.246094 9.714844 Z M 51.246094 38.855469 "/>
<path style=" stroke:none;fill-rule:nonzero;fill:rgb(0%,0%,0%);fill-opacity:1;" d="M 32.183594 22.734375 C 31.792969 22.332031 31.148438 22.308594 30.730469 22.683594 L 27.40625 25.785156 L 26.003906 24.359375 C 25.613281 23.960938 24.964844 23.9375 24.550781 24.308594 C 24.144531 24.722656 24.144531 25.371094 24.550781 25.785156 L 26.679688 27.921875 C 26.863281 28.121094 27.128906 28.234375 27.40625 28.226562 C 27.679688 28.222656 27.941406 28.113281 28.132812 27.921875 L 32.183594 24.15625 C 32.585938 23.796875 32.613281 23.1875 32.242188 22.792969 C 32.226562 22.773438 32.203125 22.753906 32.183594 22.734375 Z M 32.183594 22.734375 "/>
<path style=" stroke:none;fill-rule:nonzero;fill:rgb(0%,0%,0%);fill-opacity:1;" d="M 47.089844 24.921875 L 35.144531 24.921875 C 34.570312 24.921875 34.105469 25.375 34.105469 25.9375 C 34.105469 26.5 34.570312 26.953125 35.144531 26.953125 L 47.089844 26.953125 C 47.664062 26.953125 48.128906 26.5 48.128906 25.9375 C 48.128906 25.375 47.664062 24.921875 47.089844 24.921875 Z M 47.089844 24.921875 "/>
<path style=" stroke:none;fill-rule:nonzero;fill:rgb(0%,0%,0%);fill-opacity:1;" d="M 32.183594 14.597656 C 31.792969 14.195312 31.148438 14.171875 30.730469 14.546875 L 27.40625 17.648438 L 26.003906 16.226562 C 25.613281 15.824219 24.964844 15.800781 24.550781 16.175781 C 24.144531 16.585938 24.144531 17.234375 24.550781 17.648438 L 26.679688 19.785156 C 26.863281 19.988281 27.128906 20.097656 27.40625 20.089844 C 27.679688 20.085938 27.941406 19.976562 28.132812 19.785156 L 32.183594 16.023438 C 32.585938 15.660156 32.613281 15.050781 32.242188 14.65625 C 32.226562 14.636719 32.203125 14.617188 32.183594 14.597656 Z M 32.183594 14.597656 "/>
<path style=" stroke:none;fill-rule:nonzero;fill:rgb(0%,0%,0%);fill-opacity:1;" d="M 47.089844 16.785156 L 35.144531 16.785156 C 34.570312 16.785156 34.105469 17.238281 34.105469 17.800781 C 34.105469 18.363281 34.570312 18.816406 35.144531 18.816406 L 47.089844 18.816406 C 47.664062 18.816406 48.128906 18.363281 48.128906 17.800781 C 48.128906 17.238281 47.664062 16.785156 47.089844 16.785156 Z M 47.089844 16.785156 "/>
<path style=" stroke:none;fill-rule:nonzero;fill:rgb(0%,0%,0%);fill-opacity:1;" d="M 32.183594 30.871094 C 31.792969 30.46875 31.148438 30.445312 30.730469 30.820312 L 27.40625 33.921875 L 26.003906 32.496094 C 25.613281 32.09375 24.964844 32.074219 24.550781 32.445312 C 24.144531 32.859375 24.144531 33.507812 24.550781 33.921875 L 26.679688 36.058594 C 26.863281 36.257812 27.128906 36.371094 27.40625 36.363281 C 27.679688 36.359375 27.941406 36.25 28.132812 36.058594 L 32.183594 32.292969 C 32.585938 31.933594 32.613281 31.320312 32.242188 30.929688 C 32.226562 30.910156 32.203125 30.890625 32.183594 30.871094 Z M 32.183594 30.871094 "/>
<path style=" stroke:none;fill-rule:nonzero;fill:rgb(0%,0%,0%);fill-opacity:1;" d="M 47.089844 33.058594 L 35.144531 33.058594 C 34.570312 33.058594 34.105469 33.511719 34.105469 34.074219 C 34.105469 34.636719 34.570312 35.089844 35.144531 35.089844 L 47.089844 35.089844 C 47.664062 35.089844 48.128906 34.636719 48.128906 34.074219 C 48.128906 33.511719 47.664062 33.058594 47.089844 33.058594 Z M 47.089844 33.058594 "/>
<path style=" stroke:none;fill-rule:nonzero;fill:rgb(0%,0%,0%);fill-opacity:1;" d="M 19.570312 44.722656 C 19.242188 45.050781 19.242188 45.585938 19.570312 45.914062 C 19.898438 46.246094 20.433594 46.246094 20.761719 45.914062 C 21.089844 45.585938 21.089844 45.050781 20.761719 44.722656 C 20.433594 44.390625 19.898438 44.390625 19.570312 44.722656 Z M 19.570312 44.722656 "/>
<g clip-path="url(#clip1)" clip-rule="nonzero">
<path style=" stroke:none;fill-rule:nonzero;fill:rgb(0%,0%,0%);fill-opacity:1;" d="M 41.160156 43.253906 L 34.765625 37.800781 C 34.738281 37.773438 34.707031 37.753906 34.671875 37.730469 C 32.996094 36.660156 30.84375 36.898438 29.4375 38.308594 L 25.953125 41.804688 C 25.710938 42.046875 25.351562 42.117188 25.035156 41.988281 C 21.101562 40.355469 17.871094 37.894531 15.429688 34.679688 C 13.566406 32.226562 12.898438 30.277344 12.808594 30.003906 C 12.796875 29.945312 12.78125 29.886719 12.757812 29.828125 C 12.628906 29.511719 12.699219 29.152344 12.941406 28.910156 L 16.425781 25.414062 C 17.832031 24.003906 18.066406 21.839844 17 20.160156 C 16.992188 20.144531 16.980469 20.132812 16.972656 20.117188 L 12.355469 13.683594 C 10.90625 11.421875 7.742188 11.082031 5.84375 12.984375 L 5.144531 13.683594 C 5.144531 13.6875 5.144531 13.6875 5.144531 13.6875 L 2.652344 16.1875 C -0.316406 19.167969 -0.804688 23.648438 1.246094 29.144531 C 3.003906 33.851562 6.523438 39 11.152344 43.648438 C 15.894531 48.40625 21.164062 52 26 53.773438 C 30.78125 55.527344 35.871094 55.742188 39.472656 52.128906 L 41.824219 49.769531 C 43.710938 47.875 43.382812 44.71875 41.160156 43.253906 Z M 33.722656 39.128906 L 40.109375 44.578125 C 40.140625 44.601562 40.171875 44.625 40.203125 44.644531 C 41.566406 45.515625 41.773438 47.429688 40.632812 48.574219 L 40.457031 48.75 L 29.566406 40.566406 L 30.628906 39.503906 C 31.460938 38.667969 32.722656 38.519531 33.722656 39.128906 Z M 10.949219 14.609375 C 10.960938 14.625 10.96875 14.636719 10.976562 14.652344 L 15.589844 21.085938 C 16.21875 22.089844 16.074219 23.378906 15.234375 24.21875 L 14.203125 25.25 L 6.835938 14.378906 L 7.035156 14.179688 C 8.179688 13.03125 10.085938 13.246094 10.949219 14.609375 Z M 26.574219 52.1875 C 21.96875 50.496094 16.914062 47.039062 12.34375 42.453125 C 7.878906 37.972656 4.5 33.035156 2.824219 28.550781 C 1.566406 25.183594 0.722656 20.511719 3.84375 17.382812 L 5.625 15.59375 L 12.992188 26.46875 L 11.75 27.714844 C 11.042969 28.421875 10.820312 29.472656 11.175781 30.40625 C 11.441406 31.5 12.664062 33.769531 13.894531 35.445312 C 15.710938 37.90625 19.003906 41.3125 24.394531 43.550781 C 25.339844 43.941406 26.417969 43.726562 27.144531 43 L 28.363281 41.773438 L 39.253906 49.957031 L 38.28125 50.933594 C 34.9375 54.289062 30.070312 53.46875 26.574219 52.1875 Z M 26.574219 52.1875 "/>
</g>
<path style=" stroke:none;fill-rule:nonzero;fill:rgb(0%,0%,0%);fill-opacity:1;" d="M 17.992188 42.703125 C 17.101562 41.921875 15.5625 40.574219 14.753906 39.738281 C 12.769531 37.691406 10.683594 35.207031 9.445312 33.414062 C 9.179688 33.03125 8.65625 32.9375 8.273438 33.203125 C 7.890625 33.46875 7.796875 33.992188 8.0625 34.378906 C 9.625 36.640625 11.917969 39.238281 13.546875 40.917969 C 14.402344 41.800781 15.953125 43.160156 16.882812 43.972656 C 17.230469 44.28125 17.761719 44.246094 18.070312 43.894531 C 18.375 43.546875 18.339844 43.011719 17.992188 42.703125 Z M 17.992188 42.703125 "/>
</g>
</svg>
