<svg xmlns="http://www.w3.org/2000/svg" xmlns:xlink="http://www.w3.org/1999/xlink" width="55pt" height="55pt" viewBox="0 0 55 55" version="1.1">
<path style=" stroke:none;fill-rule:evenodd;fill:rgb(0%,0%,0%);fill-opacity:1;" d="M 53.554688 30.4375 C 53.554688 30.800781 53.398438 31.144531 53.097656 31.367188 C 53.097656 31.367188 53.082031 31.367188 53.082031 31.382812 L 48.117188 34.933594 C 47.992188 35.027344 47.835938 35.074219 47.660156 35.074219 L 42.851562 35.074219 L 50.082031 43.105469 C 50.851562 43.953125 51.023438 45.117188 50.570312 46.136719 C 50.113281 47.175781 49.121094 47.820312 47.992188 47.820312 L 41.453125 47.820312 L 41.453125 52.234375 C 41.453125 53.097656 40.746094 53.820312 39.867188 53.820312 L 29.652344 53.820312 C 28.773438 53.820312 28.066406 53.097656 28.066406 52.234375 L 28.066406 47.820312 L 12.761719 47.820312 C 11.203125 47.820312 9.945312 46.546875 9.945312 45.003906 L 9.945312 41.078125 C 9.945312 40.652344 10.292969 40.292969 10.71875 40.292969 C 11.15625 40.292969 11.503906 40.652344 11.503906 41.078125 L 11.503906 45.003906 C 11.503906 45.695312 12.070312 46.246094 12.761719 46.246094 L 28.066406 46.246094 L 28.066406 42.082031 L 16.453125 42.082031 C 16.027344 42.082031 15.667969 41.738281 15.667969 41.296875 L 15.667969 15.542969 C 15.667969 15.210938 15.871094 14.929688 16.171875 14.804688 C 16.484375 14.691406 16.8125 14.769531 17.035156 15.007812 L 26.761719 25.789062 L 28.066406 25.789062 L 28.066406 21.027344 L 13.6875 5.089844 C 13.152344 4.496094 12.492188 4.683594 12.304688 4.746094 C 12.117188 4.824219 11.503906 5.121094 11.503906 5.925781 L 11.503906 37.746094 C 11.503906 38.1875 11.15625 38.53125 10.71875 38.53125 C 10.292969 38.53125 9.945312 38.1875 9.945312 37.746094 L 9.945312 35.074219 L 3.628906 35.074219 C 1.777344 35.074219 0.265625 33.566406 0.265625 31.710938 L 0.265625 29.164062 C 0.265625 27.3125 1.777344 25.789062 3.628906 25.789062 L 9.945312 25.789062 L 9.945312 5.925781 C 9.945312 4.746094 10.652344 3.707031 11.753906 3.300781 C 12.855469 2.875 14.0625 3.160156 14.851562 4.039062 L 28.066406 18.699219 L 28.066406 2.105469 C 28.066406 1.226562 28.773438 0.519531 29.652344 0.519531 L 39.867188 0.519531 C 40.746094 0.519531 41.453125 1.226562 41.453125 2.105469 L 41.453125 25.789062 L 47.660156 25.789062 C 47.835938 25.789062 47.992188 25.851562 48.117188 25.945312 L 53.082031 29.496094 C 53.082031 29.496094 53.097656 29.511719 53.097656 29.511719 C 53.398438 29.730469 53.554688 30.078125 53.554688 30.4375 Z M 1.824219 31.710938 C 1.824219 32.703125 2.640625 33.519531 3.628906 33.519531 L 6.332031 33.519531 L 6.332031 27.359375 L 3.628906 27.359375 C 2.640625 27.359375 1.824219 28.175781 1.824219 29.164062 Z M 9.945312 33.519531 L 9.945312 27.359375 L 7.886719 27.359375 L 7.886719 33.519531 Z M 28.066406 40.527344 L 28.066406 35.074219 L 24.261719 35.074219 C 23.839844 35.074219 23.492188 34.730469 23.492188 34.304688 C 23.492188 33.863281 23.839844 33.519531 24.261719 33.519531 L 43.8125 33.519531 L 43.8125 27.359375 L 36.425781 27.359375 C 36 27.359375 35.640625 27.011719 35.640625 26.574219 C 35.640625 26.148438 36 25.789062 36.425781 25.789062 L 39.882812 25.789062 L 39.882812 23.085938 L 38.328125 23.085938 C 37.902344 23.085938 37.558594 22.722656 37.558594 22.296875 C 37.558594 21.859375 37.902344 21.511719 38.328125 21.511719 L 39.882812 21.511719 L 39.882812 16.3125 L 38.328125 16.3125 C 37.902344 16.3125 37.558594 15.964844 37.558594 15.542969 C 37.558594 15.101562 37.902344 14.753906 38.328125 14.753906 L 39.882812 14.753906 L 39.882812 9.554688 L 38.328125 9.554688 C 37.902344 9.554688 37.558594 9.207031 37.558594 8.785156 C 37.558594 8.34375 37.902344 8 38.328125 8 L 39.882812 8 L 39.882812 2.105469 C 39.882812 2.089844 39.882812 2.089844 39.867188 2.089844 L 29.652344 2.089844 C 29.636719 2.089844 29.636719 2.089844 29.636719 2.105469 L 29.636719 25.789062 L 33.09375 25.789062 C 33.535156 25.789062 33.878906 26.148438 33.878906 26.574219 C 33.878906 27.011719 33.535156 27.359375 33.09375 27.359375 L 17.238281 27.359375 L 17.238281 33.519531 L 20.929688 33.519531 C 21.371094 33.519531 21.71875 33.863281 21.71875 34.304688 C 21.71875 34.730469 21.371094 35.074219 20.929688 35.074219 L 17.238281 35.074219 L 17.238281 40.527344 Z M 17.238281 17.570312 L 17.238281 25.789062 L 24.65625 25.789062 Z M 39.882812 52.234375 L 39.882812 46.246094 L 38.328125 46.246094 C 37.902344 46.246094 37.558594 45.886719 37.558594 45.460938 C 37.558594 45.019531 37.902344 44.675781 38.328125 44.675781 L 39.882812 44.675781 L 39.882812 39.488281 L 38.328125 39.488281 C 37.902344 39.488281 37.558594 39.128906 37.558594 38.703125 C 37.558594 38.265625 37.902344 37.917969 38.328125 37.917969 L 39.882812 37.917969 L 39.882812 35.074219 L 29.636719 35.074219 L 29.636719 52.234375 C 29.636719 52.25 29.636719 52.25 29.652344 52.25 L 39.867188 52.25 C 39.882812 52.25 39.882812 52.25 39.882812 52.234375 Z M 48.933594 44.15625 L 41.453125 35.859375 L 41.453125 46.246094 L 47.992188 46.246094 C 48.511719 46.246094 48.933594 45.980469 49.136719 45.507812 C 49.34375 45.039062 49.265625 44.535156 48.933594 44.15625 Z M 48.382812 32.828125 L 48.382812 28.050781 L 47.410156 27.359375 L 45.367188 27.359375 L 45.367188 33.519531 L 47.410156 33.519531 Z M 51.714844 30.4375 L 49.941406 29.164062 L 49.941406 31.710938 Z M 51.714844 30.4375 "/>
</svg>
