<svg xmlns="http://www.w3.org/2000/svg" xmlns:xlink="http://www.w3.org/1999/xlink" width="52pt" height="55pt" viewBox="0 0 52 55" version="1.1">
<path style=" stroke:none;fill-rule:evenodd;fill:rgb(16.078431%,16.078431%,16.078431%);fill-opacity:1;" d="M 35.65625 15.5625 C 35.65625 16.015625 35.292969 16.386719 34.820312 16.386719 L 7.992188 16.386719 C 7.535156 16.386719 7.160156 16.015625 7.160156 15.5625 C 7.160156 15.109375 7.535156 14.75 7.992188 14.75 L 34.820312 14.75 C 35.292969 14.75 35.65625 15.109375 35.65625 15.5625 Z M 7.160156 10.644531 C 7.160156 10.191406 7.535156 9.832031 7.992188 9.832031 L 21.417969 9.832031 C 21.867188 9.832031 22.234375 10.191406 22.234375 10.644531 C 22.234375 11.09375 21.867188 11.46875 21.417969 11.46875 L 7.992188 11.46875 C 7.535156 11.46875 7.160156 11.09375 7.160156 10.644531 Z M 35.65625 20.335938 C 35.65625 20.789062 35.292969 21.164062 34.820312 21.164062 L 7.992188 21.164062 C 7.535156 21.164062 7.160156 20.789062 7.160156 20.335938 C 7.160156 19.882812 7.535156 19.523438 7.992188 19.523438 L 34.820312 19.523438 C 35.292969 19.523438 35.65625 19.882812 35.65625 20.335938 Z M 14.097656 47.835938 C 14.554688 47.835938 14.933594 48.191406 14.933594 48.617188 C 14.933594 49.035156 14.554688 49.394531 14.097656 49.394531 L 5.511719 49.394531 C 3.203125 49.394531 1.300781 47.613281 1.300781 45.429688 L 1.300781 4.480469 C 1.300781 2.296875 3.1875 0.515625 5.511719 0.515625 L 30.253906 0.515625 C 31.164062 0.515625 32.015625 0.855469 32.660156 1.453125 L 40.523438 8.847656 C 41.164062 9.457031 41.511719 10.253906 41.511719 11.09375 L 41.511719 24.296875 C 41.511719 24.738281 41.152344 25.078125 40.695312 25.078125 C 40.238281 25.078125 39.863281 24.738281 39.863281 24.296875 L 39.863281 11.09375 C 39.863281 11.019531 39.863281 10.957031 39.847656 10.878906 L 34.695312 10.878906 C 32.390625 10.878906 30.503906 9.097656 30.503906 6.929688 L 30.503906 2.089844 C 30.429688 2.074219 30.347656 2.074219 30.253906 2.074219 L 5.511719 2.074219 C 4.097656 2.074219 2.953125 3.152344 2.953125 4.480469 L 2.953125 45.429688 C 2.953125 46.757812 4.097656 47.835938 5.511719 47.835938 Z M 32.152344 3.167969 L 32.152344 6.929688 C 32.152344 8.253906 33.300781 9.332031 34.695312 9.332031 L 38.699219 9.332031 Z M 50.820312 37.863281 C 51.324219 38.703125 51.042969 39.8125 50.179688 40.3125 L 48.480469 41.308594 C 47.605469 41.84375 46.535156 41.90625 45.609375 41.53125 L 44.511719 42.152344 C 44.78125 42.464844 44.96875 42.839844 45.078125 43.246094 C 45.265625 43.964844 45.15625 44.699219 44.78125 45.339844 C 44.085938 46.507812 42.625 46.976562 41.386719 46.492188 C 41.355469 46.867188 41.226562 47.257812 41.027344 47.601562 C 40.382812 48.679688 39.128906 49.160156 37.964844 48.867188 C 37.929688 49.269531 37.804688 49.691406 37.585938 50.066406 C 36.800781 51.359375 35.105469 51.796875 33.800781 51.03125 L 33.789062 51.019531 C 33.753906 51.394531 33.628906 51.769531 33.425781 52.097656 C 32.640625 53.40625 30.945312 53.84375 29.640625 53.0625 L 27.648438 51.894531 C 26.738281 52.984375 25.105469 53.203125 23.910156 52.359375 C 23.472656 52.035156 23.140625 51.59375 22.953125 51.109375 C 22.105469 51.484375 21.070312 51.40625 20.253906 50.832031 C 19.644531 50.394531 19.265625 49.738281 19.136719 49.054688 C 18.382812 49.175781 17.679688 48.992188 17.097656 48.582031 C 16.484375 48.128906 16.109375 47.488281 15.980469 46.804688 C 15.246094 46.929688 14.523438 46.742188 13.941406 46.320312 C 12.703125 45.449219 12.417969 43.730469 13.3125 42.496094 L 14.054688 41.453125 L 13.707031 41.246094 C 13.171875 41.59375 12.558594 41.761719 11.949219 41.761719 C 11.382812 41.761719 10.820312 41.621094 10.300781 41.308594 L 8.601562 40.3125 C 7.738281 39.8125 7.457031 38.703125 7.972656 37.863281 L 14.960938 26.128906 C 15.464844 25.285156 16.582031 25 17.441406 25.5 L 19.136719 26.5 C 20.316406 27.203125 20.882812 28.53125 20.675781 29.792969 L 21.101562 30.042969 C 21.777344 30.429688 22.59375 30.511719 23.328125 30.230469 L 24.914062 29.621094 C 26.691406 28.933594 27.695312 29.21875 29.375 30.167969 C 29.625 30.074219 29.546875 30.105469 32.40625 29.386719 C 34.085938 28.96875 35.105469 29.808594 36.457031 30.230469 C 37.023438 30.449219 37.648438 30.449219 38.230469 30.246094 C 37.777344 28.855469 38.339844 27.28125 39.660156 26.5 L 41.355469 25.5 C 42.21875 25 43.320312 25.285156 43.835938 26.128906 Z M 11.144531 39.90625 C 11.902344 40.34375 12.855469 40.109375 13.296875 39.359375 L 18.839844 30.058594 C 19.277344 29.324219 19.042969 28.355469 18.292969 27.917969 L 16.597656 26.90625 C 16.519531 26.875 16.421875 26.886719 16.375 26.96875 L 9.386719 38.691406 C 9.34375 38.765625 9.371094 38.859375 9.453125 38.90625 Z M 16.472656 44.746094 L 17.566406 43.214844 C 17.914062 42.714844 17.804688 42.027344 17.300781 41.671875 C 16.796875 41.308594 16.089844 41.433594 15.746094 41.921875 L 14.648438 43.449219 C 14.289062 43.949219 14.414062 44.636719 14.898438 44.996094 C 15.402344 45.351562 16.109375 45.242188 16.472656 44.746094 Z M 43.472656 43.652344 C 43.410156 43.371094 43.222656 43.121094 42.972656 42.980469 C 41.953125 42.371094 33.160156 37.1875 32.089844 36.566406 C 31.902344 37.082031 31.621094 37.566406 31.210938 37.953125 C 30.519531 38.640625 29.613281 39.019531 28.636719 39.019531 C 27.664062 39.019531 26.882812 38.238281 26.882812 37.269531 L 26.882812 33.632812 C 26.882812 32.710938 27.222656 31.855469 27.804688 31.195312 C 26.910156 30.777344 26.410156 30.792969 25.511719 31.152344 L 23.925781 31.757812 C 22.6875 32.226562 21.355469 32.085938 20.269531 31.445312 L 20.019531 31.308594 L 14.835938 40.015625 L 15.210938 40.234375 C 16.125 39.671875 17.332031 39.671875 18.273438 40.34375 C 18.605469 40.578125 18.875 40.875 19.0625 41.21875 C 19.984375 40.265625 21.507812 40.109375 22.640625 40.90625 C 23.21875 41.34375 23.628906 41.96875 23.738281 42.683594 C 24.445312 42.574219 25.167969 42.714844 25.78125 43.152344 C 26.816406 43.902344 27.195312 45.226562 26.769531 46.351562 C 27.160156 46.429688 27.554688 46.585938 27.914062 46.835938 C 29.105469 47.691406 29.421875 49.332031 28.621094 50.550781 L 30.476562 51.65625 C 31.007812 51.972656 31.699219 51.785156 32.015625 51.269531 C 32.328125 50.738281 32.140625 50.050781 31.621094 49.738281 L 30.019531 48.804688 C 29.625 48.566406 29.5 48.066406 29.738281 47.675781 C 29.972656 47.289062 30.476562 47.164062 30.867188 47.398438 L 32.453125 48.332031 L 34.632812 49.613281 C 35.167969 49.925781 35.859375 49.753906 36.171875 49.222656 C 36.488281 48.691406 36.300781 48.023438 35.78125 47.710938 L 31.714844 45.304688 C 31.324219 45.085938 31.199219 44.574219 31.417969 44.199219 C 31.652344 43.808594 32.152344 43.667969 32.546875 43.902344 C 34.371094 44.976562 36.03125 45.945312 38.074219 47.148438 C 38.609375 47.460938 39.28125 47.289062 39.597656 46.757812 C 39.910156 46.242188 39.738281 45.554688 39.203125 45.242188 L 33.691406 41.996094 C 33.300781 41.761719 33.171875 41.265625 33.394531 40.875 C 33.628906 40.480469 34.148438 40.359375 34.523438 40.59375 C 35.152344 40.953125 40.929688 44.355469 41.824219 44.886719 C 42.359375 45.199219 43.050781 45.023438 43.367188 44.496094 C 43.507812 44.246094 43.554688 43.949219 43.472656 43.652344 Z M 21.210938 49.488281 C 21.714844 49.847656 22.40625 49.738281 22.765625 49.238281 L 24.054688 47.460938 L 25.074219 46.039062 C 25.433594 45.539062 25.324219 44.851562 24.824219 44.496094 C 24.320312 44.136719 23.628906 44.246094 23.265625 44.746094 L 20.960938 47.941406 C 20.597656 48.441406 20.710938 49.128906 21.210938 49.488281 Z M 26.4375 50.769531 L 27.207031 49.707031 C 27.570312 49.207031 27.445312 48.519531 26.945312 48.164062 C 26.453125 47.800781 25.746094 47.929688 25.386719 48.414062 L 24.617188 49.488281 C 24.257812 49.972656 24.382812 50.675781 24.886719 51.03125 C 25.371094 51.394531 26.078125 51.269531 26.4375 50.769531 Z M 19.609375 46.992188 L 21.933594 43.792969 C 22.105469 43.542969 22.171875 43.261719 22.121094 42.964844 C 22.074219 42.667969 21.917969 42.421875 21.667969 42.246094 C 21.480469 42.109375 21.257812 42.027344 21.023438 42.027344 C 20.960938 42.027344 20.898438 42.046875 20.835938 42.046875 C 20.550781 42.089844 20.285156 42.261719 20.113281 42.496094 L 18.902344 44.183594 L 17.804688 45.695312 C 17.441406 46.195312 17.550781 46.882812 18.058594 47.238281 C 18.558594 47.601562 19.25 47.488281 19.609375 46.992188 Z M 49.394531 38.691406 L 42.40625 26.96875 C 42.359375 26.886719 42.265625 26.875 42.1875 26.90625 L 40.492188 27.917969 C 39.738281 28.355469 39.503906 29.308594 39.941406 30.058594 L 40.914062 31.695312 C 41.152344 32.085938 41.027344 32.585938 40.632812 32.824219 C 40.238281 33.054688 39.738281 32.929688 39.503906 32.539062 L 39 31.695312 C 38.011719 32.121094 36.878906 32.148438 35.84375 31.757812 C 34.371094 31.246094 33.800781 30.730469 32.8125 30.980469 L 30.066406 31.667969 C 29.1875 31.882812 28.53125 32.679688 28.53125 33.632812 L 28.53125 37.269531 C 28.53125 37.332031 28.574219 37.375 28.636719 37.375 C 29.167969 37.375 29.675781 37.175781 30.050781 36.800781 C 30.726562 36.128906 30.628906 35.289062 30.628906 35.238281 C 30.628906 34.613281 31.324219 34.210938 31.871094 34.535156 L 43.082031 41.140625 C 43.207031 41.03125 43.347656 40.9375 43.507812 40.855469 L 44.226562 40.4375 C 44.164062 40.359375 44.117188 40.28125 44.074219 40.203125 L 41.464844 35.832031 C 41.226562 35.441406 41.371094 34.941406 41.761719 34.710938 C 42.15625 34.472656 42.660156 34.613281 42.894531 35.003906 L 45.484375 39.359375 C 45.925781 40.109375 46.898438 40.34375 47.636719 39.90625 L 49.347656 38.90625 C 49.410156 38.859375 49.441406 38.765625 49.394531 38.691406 Z M 49.394531 38.691406 "/>
</svg>
